<mxfile host="app.diagrams.net" modified="2021-01-09T15:51:47.708Z" agent="5.0 (Windows NT 10.0; Win64; x64) AppleWebKit/537.36 (KHTML, like Gecko) Chrome/87.0.4280.88 Safari/537.36 OPR/73.0.3856.284" etag="hwsqoNJmUX74zdiVS5qE" version="14.1.8" type="github">
  <diagram id="gEjePaVvbhrUFUTTlhme" name="Page-1">
    <mxGraphModel dx="1382" dy="795" grid="1" gridSize="10" guides="1" tooltips="1" connect="1" arrows="1" fold="1" page="1" pageScale="1" pageWidth="850" pageHeight="1100" background="#FFFFFF" math="0" shadow="0">
      <root>
        <mxCell id="0" />
        <mxCell id="1" parent="0" />
        <mxCell id="8RLVrkqTNvQf993v1aAf-1" value="&lt;b&gt;&lt;span style=&quot;font-size: 16px ; color: rgb(255 , 51 , 51) ; font-family: &amp;#34;tahoma&amp;#34;&quot;&gt;Conventional&amp;nbsp;Method of Application Development project lifecycle&lt;/span&gt;&lt;/b&gt;&lt;font color=&quot;#ff3333&quot; face=&quot;Tahoma&quot;&gt;&lt;span style=&quot;font-size: 16px&quot;&gt;&lt;b&gt;&lt;br&gt;&lt;/b&gt;&lt;/span&gt;&lt;/font&gt;" style="text;html=1;strokeColor=none;fillColor=none;align=center;verticalAlign=middle;whiteSpace=wrap;rounded=0;" vertex="1" parent="1">
          <mxGeometry x="10" y="10" width="1490" height="160" as="geometry" />
        </mxCell>
        <mxCell id="8RLVrkqTNvQf993v1aAf-2" value="" style="pointerEvents=1;shadow=0;dashed=0;html=1;labelPosition=center;verticalLabelPosition=bottom;verticalAlign=top;outlineConnect=0;align=center;shape=mxgraph.office.sites.website_public;fillColor=#0066CC;" vertex="1" parent="1">
          <mxGeometry x="150" y="170" width="198" height="178" as="geometry" />
        </mxCell>
        <mxCell id="8RLVrkqTNvQf993v1aAf-3" value="Requirement Gathering" style="shape=ext;double=1;rounded=0;whiteSpace=wrap;html=1;" vertex="1" parent="1">
          <mxGeometry x="470" y="200" width="120" height="80" as="geometry" />
        </mxCell>
        <mxCell id="8RLVrkqTNvQf993v1aAf-4" value="Design" style="shape=ext;double=1;rounded=0;whiteSpace=wrap;html=1;" vertex="1" parent="1">
          <mxGeometry x="630" y="200" width="120" height="80" as="geometry" />
        </mxCell>
        <mxCell id="8RLVrkqTNvQf993v1aAf-5" value="Development" style="shape=ext;double=1;rounded=0;whiteSpace=wrap;html=1;" vertex="1" parent="1">
          <mxGeometry x="790" y="200" width="120" height="80" as="geometry" />
        </mxCell>
        <mxCell id="8RLVrkqTNvQf993v1aAf-6" value="Testing&amp;nbsp;" style="shape=ext;double=1;rounded=0;whiteSpace=wrap;html=1;" vertex="1" parent="1">
          <mxGeometry x="950" y="200" width="120" height="80" as="geometry" />
        </mxCell>
        <mxCell id="8RLVrkqTNvQf993v1aAf-7" value="Deployment" style="shape=ext;double=1;rounded=0;whiteSpace=wrap;html=1;" vertex="1" parent="1">
          <mxGeometry x="1110" y="200" width="120" height="80" as="geometry" />
        </mxCell>
        <mxCell id="8RLVrkqTNvQf993v1aAf-11" value="" style="shape=image;html=1;verticalAlign=top;verticalLabelPosition=bottom;labelBackgroundColor=#ffffff;imageAspect=0;aspect=fixed;image=https://cdn3.iconfinder.com/data/icons/technology-mix/200/Technology_Mix_-_Final-07-128.png;imageBackground=#ffffff;" vertex="1" parent="1">
          <mxGeometry x="1275" y="176" width="128" height="128" as="geometry" />
        </mxCell>
        <mxCell id="8RLVrkqTNvQf993v1aAf-12" value="Faster route to Production" style="shape=step;perimeter=stepPerimeter;whiteSpace=wrap;html=1;fixedSize=1;" vertex="1" parent="1">
          <mxGeometry x="170" y="510" width="270" height="80" as="geometry" />
        </mxCell>
        <mxCell id="8RLVrkqTNvQf993v1aAf-13" value="Regular Feature change ability" style="shape=step;perimeter=stepPerimeter;whiteSpace=wrap;html=1;fixedSize=1;" vertex="1" parent="1">
          <mxGeometry x="490" y="510" width="270" height="80" as="geometry" />
        </mxCell>
        <mxCell id="8RLVrkqTNvQf993v1aAf-14" value="ability to adopt with current market needs" style="shape=step;perimeter=stepPerimeter;whiteSpace=wrap;html=1;fixedSize=1;" vertex="1" parent="1">
          <mxGeometry x="810" y="510" width="270" height="80" as="geometry" />
        </mxCell>
        <mxCell id="8RLVrkqTNvQf993v1aAf-15" value="&lt;h3&gt;&lt;font style=&quot;font-size: 18px&quot; color=&quot;#ff66b3&quot;&gt;Agile&lt;/font&gt;&lt;/h3&gt;" style="text;html=1;strokeColor=none;fillColor=none;align=center;verticalAlign=middle;whiteSpace=wrap;rounded=0;" vertex="1" parent="1">
          <mxGeometry x="580" y="930" width="130" height="40" as="geometry" />
        </mxCell>
        <mxCell id="8RLVrkqTNvQf993v1aAf-16" value="Faster and continuous Integrations" style="ellipse;whiteSpace=wrap;html=1;" vertex="1" parent="1">
          <mxGeometry x="140" y="780" width="270" height="120" as="geometry" />
        </mxCell>
        <mxCell id="8RLVrkqTNvQf993v1aAf-18" value="" style="aspect=fixed;perimeter=ellipsePerimeter;html=1;align=center;shadow=0;dashed=0;fontColor=#4277BB;labelBackgroundColor=#ffffff;fontSize=12;spacingTop=3;image;image=img/lib/ibm/devops/devops.svg;" vertex="1" parent="1">
          <mxGeometry x="560" y="750" width="170" height="170" as="geometry" />
        </mxCell>
        <mxCell id="8RLVrkqTNvQf993v1aAf-20" value="&lt;h3&gt;&lt;font style=&quot;font-size: 18px&quot; color=&quot;#ff66b3&quot;&gt;Dev&lt;/font&gt;&lt;/h3&gt;" style="text;html=1;strokeColor=none;fillColor=none;align=center;verticalAlign=middle;whiteSpace=wrap;rounded=0;" vertex="1" parent="1">
          <mxGeometry x="425" y="730" width="130" height="220" as="geometry" />
        </mxCell>
        <mxCell id="8RLVrkqTNvQf993v1aAf-21" value="&lt;h3&gt;&lt;font style=&quot;font-size: 18px&quot; color=&quot;#ff66b3&quot;&gt;Ops&lt;/font&gt;&lt;/h3&gt;" style="text;html=1;strokeColor=none;fillColor=none;align=center;verticalAlign=middle;whiteSpace=wrap;rounded=0;" vertex="1" parent="1">
          <mxGeometry x="720" y="730" width="130" height="220" as="geometry" />
        </mxCell>
        <mxCell id="8RLVrkqTNvQf993v1aAf-22" value="Faster and continuous Deployment&amp;nbsp;" style="ellipse;whiteSpace=wrap;html=1;" vertex="1" parent="1">
          <mxGeometry x="910" y="780" width="270" height="120" as="geometry" />
        </mxCell>
      </root>
    </mxGraphModel>
  </diagram>
</mxfile>
